<?xml version="1.0" encoding="utf-8"?>
<!-- Generator: Adobe Illustrator 16.0.0, SVG Export Plug-In . SVG Version: 6.00 Build 0)  -->
<!DOCTYPE svg PUBLIC "-//W3C//DTD SVG 1.1//EN" "http://www.w3.org/Graphics/SVG/1.1/DTD/svg11.dtd">
<svg version="1.1" id="phone_1_" xmlns="http://www.w3.org/2000/svg" xmlns:xlink="http://www.w3.org/1999/xlink" x="0px" y="0px"
	 width="275px" height="540px" viewBox="0 0 275 540" enable-background="new 0 0 275 540" xml:space="preserve">
<path id="phone" fill-rule="evenodd" clip-rule="evenodd" fill="none" stroke="#000000" stroke-miterlimit="10" d="M183,1
	c14.665,0,29.335,0,44,0c0,1,0,2,0,3c21.595-0.146,30.235,5.71,39,18c1,0.667,2,1.333,3,2c7.243,11.06,4,37.589,4,55
	c0,44.996,0,90.004,0,135c0,73.326,0,146.674,0,220c0,18.998,0,38.002,0,57c0,12.022,0.526,22.817-4,30
	c-11.989,19.022-32.434,17-63,17c-39.33,0-78.67,0-118,0c-17.998,0-36.002,0-54,0c-5.333-2.333-10.667-4.667-16-7
	c-2.538-1.92-12.781-16.644-14-27c0-1.667,0-3.333,0-5c-3.723-13.422-1-38.227-1-54c0-55.995,0-112.005,0-168c0-30.33,0-60.67,0-91
	c0-6.666,0-13.334,0-20c-0.667,0-1.333,0-2,0c0-6,0-12,0-18c0.667-0.333,1.333-0.667,2-1c0-9.666,0-19.334,0-29
	c-0.667,0-1.333,0-2,0c0-6,0-12,0-18c0.667,0,1.333,0,2,0c0-1.667,0-3.333,0-5c0-8.666,0-17.334,0-26c-0.667,0-1.333,0-2,0
	c0-8.666,0-17.334,0-26c0.667,0,1.333,0,2,0c0-4.666,0-9.334,0-14c2.542-8.685,7.445-18.225,14-23C32.223,1.911,49.231,4,75,4
	c35.997,0,72.003,0,108,0C183,3,183,2,183,1z"/>
<path id="screen" fill-rule="evenodd" clip-rule="evenodd" fill="none" stroke="#000000" stroke-miterlimit="10" d="M22,97
	c77.659,0,155.341,0,233,0c0,116.322,0,232.678,0,349c-77.659,0-155.341,0-233,0C22,329.678,22,213.322,22,97z"/>
<path id="rnd1" fill-rule="evenodd" clip-rule="evenodd" fill="none" stroke="#000000" stroke-miterlimit="10" d="M139,467
	c13.807,0,25,11.193,25,25s-11.193,25-25,25s-25-11.193-25-25S125.193,467,139,467z"/>
<path id="rnd" fill-rule="evenodd" clip-rule="evenodd" fill="none" stroke="#000000" stroke-miterlimit="10" d="M92,43
	c3.866,0,7,3.134,7,7s-3.134,7-7,7s-7-3.134-7-7S88.134,43,92,43z"/>
<path id="din1" fill-rule="evenodd" clip-rule="evenodd" fill="none" stroke="#000000" stroke-miterlimit="10" d="M123,23
	c9.666,0,19.334,0,29,0c0,2,0,4,0,6c-9.666,0-19.334,0-29,0C123,27,123,25,123,23z"/>
<path id="din" fill-rule="evenodd" clip-rule="evenodd" fill="none" stroke="#000000" stroke-miterlimit="10" d="M113,45
	c16.998,0,34.001,0,51,0c0,3,0,6,0,9c-16.999,0-34.002,0-51,0C113,51,113,48,113,45z"/>
</svg>
